<svg id="visual" viewBox="0 0 960 540" width="960" height="540" xmlns="http://www.w3.org/2000/svg" xmlns:xlink="http://www.w3.org/1999/xlink" version="1.1"><path d="M0 105L22.8 108.7C45.7 112.3 91.3 119.7 137 120.2C182.7 120.7 228.3 114.3 274 115.2C319.7 116 365.3 124 411.2 128.5C457 133 503 134 548.8 130.2C594.7 126.3 640.3 117.7 686 117.7C731.7 117.7 777.3 126.3 823 124.2C868.7 122 914.3 109 937.2 102.5L960 96L960 0L937.2 0C914.3 0 868.7 0 823 0C777.3 0 731.7 0 686 0C640.3 0 594.7 0 548.8 0C503 0 457 0 411.2 0C365.3 0 319.7 0 274 0C228.3 0 182.7 0 137 0C91.3 0 45.7 0 22.8 0L0 0Z" fill="#ff8906"></path><path d="M0 94L22.8 97.8C45.7 101.7 91.3 109.3 137 108.2C182.7 107 228.3 97 274 93.2C319.7 89.3 365.3 91.7 411.2 96.2C457 100.7 503 107.3 548.8 111.2C594.7 115 640.3 116 686 115.3C731.7 114.7 777.3 112.3 823 107.2C868.7 102 914.3 94 937.2 90L960 86L960 0L937.2 0C914.3 0 868.7 0 823 0C777.3 0 731.7 0 686 0C640.3 0 594.7 0 548.8 0C503 0 457 0 411.2 0C365.3 0 319.7 0 274 0C228.3 0 182.7 0 137 0C91.3 0 45.7 0 22.8 0L0 0Z" fill="#ff7a22"></path><path d="M0 96L22.8 91.7C45.7 87.3 91.3 78.7 137 77.8C182.7 77 228.3 84 274 87.5C319.7 91 365.3 91 411.2 93C457 95 503 99 548.8 99.2C594.7 99.3 640.3 95.7 686 95.8C731.7 96 777.3 100 823 97C868.7 94 914.3 84 937.2 79L960 74L960 0L937.2 0C914.3 0 868.7 0 823 0C777.3 0 731.7 0 686 0C640.3 0 594.7 0 548.8 0C503 0 457 0 411.2 0C365.3 0 319.7 0 274 0C228.3 0 182.7 0 137 0C91.3 0 45.7 0 22.8 0L0 0Z" fill="#ff6b33"></path><path d="M0 88L22.8 84.7C45.7 81.3 91.3 74.7 137 72.7C182.7 70.7 228.3 73.3 274 72.3C319.7 71.3 365.3 66.7 411.2 65.8C457 65 503 68 548.8 70C594.7 72 640.3 73 686 71C731.7 69 777.3 64 823 62.2C868.7 60.3 914.3 61.7 937.2 62.3L960 63L960 0L937.2 0C914.3 0 868.7 0 823 0C777.3 0 731.7 0 686 0C640.3 0 594.7 0 548.8 0C503 0 457 0 411.2 0C365.3 0 319.7 0 274 0C228.3 0 182.7 0 137 0C91.3 0 45.7 0 22.8 0L0 0Z" fill="#ff5d41"></path><path d="M0 44L22.8 47.2C45.7 50.3 91.3 56.7 137 57.7C182.7 58.7 228.3 54.3 274 52.7C319.7 51 365.3 52 411.2 51.3C457 50.7 503 48.3 548.8 48.5C594.7 48.7 640.3 51.3 686 52.8C731.7 54.3 777.3 54.7 823 56.2C868.7 57.7 914.3 60.3 937.2 61.7L960 63L960 0L937.2 0C914.3 0 868.7 0 823 0C777.3 0 731.7 0 686 0C640.3 0 594.7 0 548.8 0C503 0 457 0 411.2 0C365.3 0 319.7 0 274 0C228.3 0 182.7 0 137 0C91.3 0 45.7 0 22.8 0L0 0Z" fill="#fd4f4d"></path><path d="M0 49L22.8 48C45.7 47 91.3 45 137 45.7C182.7 46.3 228.3 49.7 274 51.2C319.7 52.7 365.3 52.3 411.2 50.7C457 49 503 46 548.8 43.5C594.7 41 640.3 39 686 41C731.7 43 777.3 49 823 49.2C868.7 49.3 914.3 43.7 937.2 40.8L960 38L960 0L937.2 0C914.3 0 868.7 0 823 0C777.3 0 731.7 0 686 0C640.3 0 594.7 0 548.8 0C503 0 457 0 411.2 0C365.3 0 319.7 0 274 0C228.3 0 182.7 0 137 0C91.3 0 45.7 0 22.8 0L0 0Z" fill="#f7435a"></path><path d="M0 36L22.8 34.8C45.7 33.7 91.3 31.3 137 32.3C182.7 33.3 228.3 37.7 274 37.7C319.7 37.7 365.3 33.3 411.2 30.3C457 27.3 503 25.7 548.8 25.8C594.7 26 640.3 28 686 27.3C731.7 26.7 777.3 23.3 823 24.8C868.7 26.3 914.3 32.7 937.2 35.8L960 39L960 0L937.2 0C914.3 0 868.7 0 823 0C777.3 0 731.7 0 686 0C640.3 0 594.7 0 548.8 0C503 0 457 0 411.2 0C365.3 0 319.7 0 274 0C228.3 0 182.7 0 137 0C91.3 0 45.7 0 22.8 0L0 0Z" fill="#ef3965"></path><path d="M0 17L22.8 17.3C45.7 17.7 91.3 18.3 137 19.7C182.7 21 228.3 23 274 22.3C319.7 21.7 365.3 18.3 411.2 15.7C457 13 503 11 548.8 10.7C594.7 10.3 640.3 11.7 686 13.2C731.7 14.7 777.3 16.3 823 17.8C868.7 19.3 914.3 20.7 937.2 21.3L960 22L960 0L937.2 0C914.3 0 868.7 0 823 0C777.3 0 731.7 0 686 0C640.3 0 594.7 0 548.8 0C503 0 457 0 411.2 0C365.3 0 319.7 0 274 0C228.3 0 182.7 0 137 0C91.3 0 45.7 0 22.8 0L0 0Z" fill="#e53170"></path></svg>