<svg id="visual" viewBox="0 0 960 540" width="960" height="540" xmlns="http://www.w3.org/2000/svg" xmlns:xlink="http://www.w3.org/1999/xlink" version="1.1"><rect x="0" y="0" width="960" height="540" fill="#0f0e17"></rect><defs><linearGradient id="grad1_0" x1="43.8%" y1="100%" x2="100%" y2="0%"><stop offset="14.444444444444446%" stop-color="#0f0e17" stop-opacity="1"></stop><stop offset="85.55555555555554%" stop-color="#0f0e17" stop-opacity="1"></stop></linearGradient></defs><defs><linearGradient id="grad2_0" x1="0%" y1="100%" x2="56.3%" y2="0%"><stop offset="14.444444444444446%" stop-color="#0f0e17" stop-opacity="1"></stop><stop offset="85.55555555555554%" stop-color="#0f0e17" stop-opacity="1"></stop></linearGradient></defs><g transform="translate(960, 540)"><path d="M-297 0C-286.8 -30.5 -276.5 -61.1 -260.6 -84.7C-244.6 -108.3 -223 -125 -210.3 -152.8C-197.7 -180.7 -194.2 -219.8 -174.6 -240.3C-154.9 -260.8 -119.2 -262.8 -87.5 -269.1C-55.7 -275.5 -27.8 -286.3 0 -297L0 0Z" fill="#ff8906"></path></g><g transform="translate(0, 0)"><path d="M297 0C279.4 27 261.8 53.9 250.1 81.3C238.5 108.6 232.7 136.3 218.4 158.7C204.2 181.1 181.4 198.1 159.9 220.1C138.4 242 118.2 268.8 91.8 282.5C65.3 296.1 32.7 296.6 0 297L0 0Z" fill="#ff8906"></path></g></svg>