<svg id="visual" viewBox="0 0 960 540" width="960" height="540" xmlns="http://www.w3.org/2000/svg" xmlns:xlink="http://www.w3.org/1999/xlink" version="1.1"><path d="M0 112L22.8 110.3C45.7 108.7 91.3 105.3 137 103C182.7 100.7 228.3 99.3 274 102.2C319.7 105 365.3 112 411.2 114.7C457 117.3 503 115.7 548.8 113.2C594.7 110.7 640.3 107.3 686 106.8C731.7 106.3 777.3 108.7 823 108.5C868.7 108.3 914.3 105.7 937.2 104.3L960 103L960 0L937.2 0C914.3 0 868.7 0 823 0C777.3 0 731.7 0 686 0C640.3 0 594.7 0 548.8 0C503 0 457 0 411.2 0C365.3 0 319.7 0 274 0C228.3 0 182.7 0 137 0C91.3 0 45.7 0 22.8 0L0 0Z" fill="#ff8906"></path><path d="M0 118L22.8 113.2C45.7 108.3 91.3 98.7 137 96.7C182.7 94.7 228.3 100.3 274 98.3C319.7 96.3 365.3 86.7 411.2 88.2C457 89.7 503 102.3 548.8 108.2C594.7 114 640.3 113 686 112C731.7 111 777.3 110 823 105.8C868.7 101.7 914.3 94.3 937.2 90.7L960 87L960 0L937.2 0C914.3 0 868.7 0 823 0C777.3 0 731.7 0 686 0C640.3 0 594.7 0 548.8 0C503 0 457 0 411.2 0C365.3 0 319.7 0 274 0C228.3 0 182.7 0 137 0C91.3 0 45.7 0 22.8 0L0 0Z" fill="#ff7a22"></path><path d="M0 99L22.8 93.8C45.7 88.7 91.3 78.3 137 74.2C182.7 70 228.3 72 274 78C319.7 84 365.3 94 411.2 98.7C457 103.3 503 102.7 548.8 100.7C594.7 98.7 640.3 95.3 686 93.5C731.7 91.7 777.3 91.3 823 87.3C868.7 83.3 914.3 75.7 937.2 71.8L960 68L960 0L937.2 0C914.3 0 868.7 0 823 0C777.3 0 731.7 0 686 0C640.3 0 594.7 0 548.8 0C503 0 457 0 411.2 0C365.3 0 319.7 0 274 0C228.3 0 182.7 0 137 0C91.3 0 45.7 0 22.8 0L0 0Z" fill="#ff6b33"></path><path d="M0 72L22.8 72.8C45.7 73.7 91.3 75.3 137 76.5C182.7 77.7 228.3 78.3 274 78.2C319.7 78 365.3 77 411.2 78.5C457 80 503 84 548.8 85.2C594.7 86.3 640.3 84.7 686 83.3C731.7 82 777.3 81 823 77.2C868.7 73.3 914.3 66.7 937.2 63.3L960 60L960 0L937.2 0C914.3 0 868.7 0 823 0C777.3 0 731.7 0 686 0C640.3 0 594.7 0 548.8 0C503 0 457 0 411.2 0C365.3 0 319.7 0 274 0C228.3 0 182.7 0 137 0C91.3 0 45.7 0 22.8 0L0 0Z" fill="#ff5d41"></path><path d="M0 72L22.8 70.8C45.7 69.7 91.3 67.3 137 63C182.7 58.7 228.3 52.3 274 50.3C319.7 48.3 365.3 50.7 411.2 54C457 57.3 503 61.7 548.8 60.8C594.7 60 640.3 54 686 54.7C731.7 55.3 777.3 62.7 823 63.3C868.7 64 914.3 58 937.2 55L960 52L960 0L937.2 0C914.3 0 868.7 0 823 0C777.3 0 731.7 0 686 0C640.3 0 594.7 0 548.8 0C503 0 457 0 411.2 0C365.3 0 319.7 0 274 0C228.3 0 182.7 0 137 0C91.3 0 45.7 0 22.8 0L0 0Z" fill="#fd4f4d"></path><path d="M0 42L22.8 42.3C45.7 42.7 91.3 43.3 137 45.2C182.7 47 228.3 50 274 49.8C319.7 49.7 365.3 46.3 411.2 45.5C457 44.7 503 46.3 548.8 46.2C594.7 46 640.3 44 686 44.5C731.7 45 777.3 48 823 47.3C868.7 46.7 914.3 42.3 937.2 40.2L960 38L960 0L937.2 0C914.3 0 868.7 0 823 0C777.3 0 731.7 0 686 0C640.3 0 594.7 0 548.8 0C503 0 457 0 411.2 0C365.3 0 319.7 0 274 0C228.3 0 182.7 0 137 0C91.3 0 45.7 0 22.8 0L0 0Z" fill="#f7435a"></path><path d="M0 23L22.8 24.2C45.7 25.3 91.3 27.7 137 30.7C182.7 33.7 228.3 37.3 274 35.7C319.7 34 365.3 27 411.2 26.3C457 25.7 503 31.3 548.8 32.8C594.7 34.3 640.3 31.7 686 29C731.7 26.3 777.3 23.7 823 23.7C868.7 23.7 914.3 26.3 937.2 27.7L960 29L960 0L937.2 0C914.3 0 868.7 0 823 0C777.3 0 731.7 0 686 0C640.3 0 594.7 0 548.8 0C503 0 457 0 411.2 0C365.3 0 319.7 0 274 0C228.3 0 182.7 0 137 0C91.3 0 45.7 0 22.8 0L0 0Z" fill="#ef3965"></path><path d="M0 19L22.8 18C45.7 17 91.3 15 137 15.7C182.7 16.3 228.3 19.7 274 20.3C319.7 21 365.3 19 411.2 19.5C457 20 503 23 548.8 22.7C594.7 22.3 640.3 18.7 686 17.8C731.7 17 777.3 19 823 18.3C868.7 17.7 914.3 14.3 937.2 12.7L960 11L960 0L937.2 0C914.3 0 868.7 0 823 0C777.3 0 731.7 0 686 0C640.3 0 594.7 0 548.8 0C503 0 457 0 411.2 0C365.3 0 319.7 0 274 0C228.3 0 182.7 0 137 0C91.3 0 45.7 0 22.8 0L0 0Z" fill="#e53170"></path></svg>