<svg id="visual" viewBox="0 0 960 540" width="960" height="540" xmlns="http://www.w3.org/2000/svg" xmlns:xlink="http://www.w3.org/1999/xlink" version="1.1"><path d="M0 420L22.8 428.3C45.7 436.7 91.3 453.3 137 455C182.7 456.7 228.3 443.3 274 424.3C319.7 405.3 365.3 380.7 411.2 381.8C457 383 503 410 548.8 423.7C594.7 437.3 640.3 437.7 686 432.3C731.7 427 777.3 416 823 418C868.7 420 914.3 435 937.2 442.5L960 450L960 541L937.2 541C914.3 541 868.7 541 823 541C777.3 541 731.7 541 686 541C640.3 541 594.7 541 548.8 541C503 541 457 541 411.2 541C365.3 541 319.7 541 274 541C228.3 541 182.7 541 137 541C91.3 541 45.7 541 22.8 541L0 541Z" fill="#e53170" stroke-linecap="round" stroke-linejoin="miter"></path></svg>