<svg id="visual" viewBox="0 0 960 540" width="960" height="540" xmlns="http://www.w3.org/2000/svg" xmlns:xlink="http://www.w3.org/1999/xlink" version="1.1"><path d="M0 465L12.3 464.7C24.7 464.3 49.3 463.7 74 468C98.7 472.3 123.3 481.7 148 484.2C172.7 486.7 197.3 482.3 221.8 479.2C246.3 476 270.7 474 295.2 473.5C319.7 473 344.3 474 369 477.7C393.7 481.3 418.3 487.7 443 485.3C467.7 483 492.3 472 517 471.2C541.7 470.3 566.3 479.7 591 484.7C615.7 489.7 640.3 490.3 664.8 488.2C689.3 486 713.7 481 738.2 482.5C762.7 484 787.3 492 812 497C836.7 502 861.3 504 886 505.2C910.7 506.3 935.3 506.7 947.7 506.8L960 507L960 541L947.7 541C935.3 541 910.7 541 886 541C861.3 541 836.7 541 812 541C787.3 541 762.7 541 738.2 541C713.7 541 689.3 541 664.8 541C640.3 541 615.7 541 591 541C566.3 541 541.7 541 517 541C492.3 541 467.7 541 443 541C418.3 541 393.7 541 369 541C344.3 541 319.7 541 295.2 541C270.7 541 246.3 541 221.8 541C197.3 541 172.7 541 148 541C123.3 541 98.7 541 74 541C49.3 541 24.7 541 12.3 541L0 541Z" fill="#ff8906" stroke-linecap="round" stroke-linejoin="miter"></path></svg>