<svg id="visual" viewBox="0 0 960 540" width="960" height="540" xmlns="http://www.w3.org/2000/svg" xmlns:xlink="http://www.w3.org/1999/xlink" version="1.1"><g><g transform="translate(101 131)"><path d="M95.7 -29.7C107.2 4.3 88.1 49.6 56.2 71.4C24.3 93.2 -20.4 91.3 -52.2 68.9C-84.1 46.4 -103.2 3.4 -92.3 -29.7C-81.5 -62.8 -40.7 -85.8 0.7 -86.1C42.1 -86.3 84.2 -63.7 95.7 -29.7Z" fill="#F7760E"></path></g><g transform="translate(320 457)"><path d="M57.7 -20.1C66.4 8 59.2 39.9 38.7 55.3C18.1 70.7 -15.9 69.7 -39.1 53.1C-62.3 36.4 -74.6 4.1 -66.3 -23.6C-58 -51.2 -29 -74.1 -2.2 -73.4C24.5 -72.7 49 -48.3 57.7 -20.1Z" fill="#F7760E"></path></g><g transform="translate(698 186)"><path d="M80.1 -25.1C90.6 6.2 76.7 46.4 48.5 67C20.2 87.6 -22.4 88.6 -50.5 68.5C-78.5 48.3 -91.8 7.1 -81 -24.8C-70.1 -56.7 -35.1 -79.1 -0.1 -79.1C34.8 -79.1 69.7 -56.5 80.1 -25.1Z" fill="#F7760E"></path></g></g></svg>